<svg id="Layer_1" data-name="Layer 1" xmlns="http://www.w3.org/2000/svg" viewBox="0 0 729.13 713.38"><defs><style>.cls-1{fill:#fff;}</style></defs><path class="cls-1" d="M729.13,644.65c0,55.61-62.35,88.12-107.59,56.09L219.47,416.12a20.14,20.14,0,0,0-29.94,8L108.79,597.9c-6,13,4.22,27.65,18.39,26.31,89.24-8.66,164-29.79,218.71-68.23l52.61,37.23C309,660.75,208.67,696.77,101.28,712.43A88.42,88.42,0,0,1,0,624.83L0,68.75C0,13.14,62.35-19.37,107.59,12.66L509.66,297.25a20.16,20.16,0,0,0,30-8L620.38,115.5c6-13-4.26-27.68-18.42-26.31C512.75,97.81,438,119,383.28,157.45l-52.62-37.26C420.15,52.65,520.47,16.59,627.89.94A88.45,88.45,0,0,1,729.1,88.57Z"/></svg>